<svg width="23" height="21" viewBox="0 0 23 21" fill="none" xmlns="http://www.w3.org/2000/svg">
<path fill-rule="evenodd" clip-rule="evenodd" d="M11.1169 19.3078L9.00508 20.1157L7.38865 18.6227L5.10292 18.6225L4.22798 16.6719L2.11632 15.8636L2.11608 13.752L0.5 12.2587L1.37449 10.3078L0.5 8.35695L2.11608 6.8637L2.11632 4.75215L4.22798 3.94389L5.10292 1.99315L7.38865 1.99293L9.00508 0.5L11.1169 1.30785L13.2287 0.5L14.8452 1.99293L17.1309 1.99315L18.0059 3.94389L20.1175 4.75215L20.1177 6.8637L21.7339 8.35695L20.8593 10.3078L21.7339 12.2587L20.1177 13.752L20.1175 15.8636L18.0059 16.6719L17.1309 18.6225L14.8452 18.6227L13.2287 20.1157L11.1169 19.3078Z" fill="#F0F0F5" stroke="#2D2D32" stroke-linecap="round" stroke-linejoin="round"/>
<path d="M6.74528 10.5199C6.46716 10.266 6.01624 10.266 5.73813 10.5199C5.46001 10.7738 5.46001 11.1854 5.73813 11.4393L9.06156 14.4734C9.33968 14.7273 9.7906 14.7273 10.0687 14.4734L16.7156 8.40529C16.9937 8.15139 16.9937 7.73974 16.7156 7.48584C16.4374 7.23194 15.9866 7.23194 15.7085 7.48584L9.56515 13.0942L6.74528 10.5199Z" fill="#2D2D32" stroke="#2D2D32" stroke-width="0.506465"/>
</svg>
