<svg width="48" height="110" viewBox="0 0 48 110" fill="none" xmlns="http://www.w3.org/2000/svg">
<path opacity="0.8" d="M34.2782 83.13C37.6381 91.0449 41.433 96.6094 47.1255 104.956C49.023 107.738 46.2553 109.657 43.9227 109.225C39.2576 108.362 36.4899 110.28 31.8247 109.417C27.1596 108.553 24.3919 110.472 19.7267 109.608C17.3942 109.177 17.8292 106.826 20.5969 104.908C23.3646 102.989 28.0298 103.852 32.6949 104.716L35.0275 105.148C32.6949 104.716 30.3623 104.284 28.4648 101.502C24.2348 98.2879 17.6721 94.6421 13.442 91.4281C5.417 82.6495 0.15963 71.9523 0.00251492 59.7682C-0.154597 47.584 7.12114 34.3448 13.5267 25.8065C16.7294 21.5373 22.6999 15.3495 28.2352 11.5121C31.0029 9.59342 33.7706 7.67473 36.5383 5.75604C39.3059 3.83735 42.0736 1.91866 44.8413 -1.78484e-05C47.1739 0.431765 49.5065 0.863553 46.7388 2.78224C43.9711 4.70093 41.2034 6.61962 40.7683 8.97008C38.0007 10.8888 35.233 12.8075 32.4653 14.7261C26.93 18.5635 23.7272 22.8327 20.5244 27.1018C12.2214 32.8579 7.71335 44.1784 5.53789 55.9308C5.695 68.1149 8.61978 78.3804 17.0799 84.8084C21.31 88.0225 25.5401 91.2365 29.7701 94.4505C32.1027 94.8823 34.4353 95.3141 34.0002 97.6646C32.1027 94.8823 28.3077 89.3178 26.4102 86.5356C27.2804 81.8346 32.3807 80.3477 34.2782 83.13Z" fill="#2AA7FF"/>
</svg>
