<svg width="43" height="34" viewBox="0 0 43 34" fill="none" xmlns="http://www.w3.org/2000/svg">
<g clip-path="url(#clip0_32_1022)">
<path d="M34.5 0H8.5C6.29086 0 4.5 1.79086 4.5 4V30C4.5 32.2091 6.29086 34 8.5 34H34.5C36.7091 34 38.5 32.2091 38.5 30V4C38.5 1.79086 36.7091 0 34.5 0Z" fill="#2AA7FF"/>
<path d="M23.5154 11.5749C23.1187 11.5016 22.7543 11.7548 22.6788 12.142C22.6033 12.5292 22.8573 12.9073 23.2432 12.9831C24.4051 13.2096 25.3022 14.109 25.5296 15.2748C25.5943 15.6104 25.8898 15.8553 26.23 15.8553C26.2757 15.8553 26.3213 15.8511 26.3678 15.8428C26.7537 15.7653 27.0077 15.3881 26.9322 15C26.5927 13.2587 25.2524 11.9138 23.5154 11.5749Z" fill="white"/>
<path d="M23.4635 8.67311C23.2776 8.64647 23.0909 8.70143 22.9423 8.81968C22.7896 8.9396 22.6942 9.11281 22.6735 9.30685C22.6295 9.69908 22.9125 10.0539 23.3042 10.098C26.0056 10.3994 28.1053 12.5038 28.409 15.2136C28.4497 15.5767 28.7543 15.8507 29.1178 15.8507C29.1452 15.8507 29.1717 15.849 29.1991 15.8457C29.3891 15.8249 29.5585 15.7308 29.678 15.5809C29.7966 15.431 29.8506 15.2445 29.829 15.0538C29.4506 11.6727 26.8338 9.04869 23.4635 8.67311Z" fill="white"/>
<path fill-rule="evenodd" clip-rule="evenodd" d="M20.693 17.8103C24.0172 21.1336 24.7713 17.2889 26.8879 19.404C28.9284 21.444 30.1012 21.8527 27.5159 24.4373C27.192 24.6975 25.1345 27.8285 17.9037 20.5997C10.6719 13.37 13.8012 11.3104 14.0615 10.9866C16.6531 8.39488 17.0547 9.5745 19.0952 11.6144C21.2118 13.7304 17.3687 14.487 20.693 17.8103Z" fill="white"/>
</g>
<defs>
<clipPath id="clip0_32_1022">
<rect width="43" height="34" fill="white"/>
</clipPath>
</defs>
</svg>
