<svg width="16" height="16" viewBox="0 0 16 16" fill="none" xmlns="http://www.w3.org/2000/svg">
<path d="M15.5 7.75C15.5 3.46875 12.0312 0 7.75 0C3.46875 0 0 3.46875 0 7.75C0 11.0625 2.03125 13.8438 4.90625 14.9688C4.84375 14.375 4.78125 13.4375 4.9375 12.75C5.09375 12.1562 5.84375 8.90625 5.84375 8.90625C5.84375 8.90625 5.625 8.4375 5.625 7.75C5.625 6.6875 6.25 5.875 7.03125 5.875C7.6875 5.875 8 6.375 8 6.96875C8 7.625 7.5625 8.625 7.34375 9.5625C7.1875 10.3125 7.75 10.9375 8.5 10.9375C9.875 10.9375 10.9375 9.5 10.9375 7.40625C10.9375 5.53125 9.59375 4.25 7.71875 4.25C5.5 4.25 4.21875 5.90625 4.21875 7.59375C4.21875 8.28125 4.46875 9 4.78125 9.375C4.84375 9.4375 4.84375 9.53125 4.84375 9.59375C4.78125 9.84375 4.625 10.375 4.625 10.4688C4.59375 10.625 4.5 10.6562 4.34375 10.5938C3.375 10.125 2.78125 8.71875 2.78125 7.5625C2.78125 5.125 4.5625 2.875 7.90625 2.875C10.5938 2.875 12.6875 4.8125 12.6875 7.375C12.6875 10.0312 11 12.1875 8.65625 12.1875C7.875 12.1875 7.125 11.7812 6.875 11.2812C6.875 11.2812 6.5 12.7812 6.40625 13.125C6.21875 13.8125 5.75 14.6562 5.4375 15.1562C6.15625 15.4062 6.9375 15.5 7.75 15.5C12.0312 15.5 15.5 12.0312 15.5 7.75Z" fill="#2AA7FF"/>
</svg>
