<svg width="18" height="12" viewBox="0 0 18 12" fill="none" xmlns="http://www.w3.org/2000/svg">
<path d="M16.7188 1.90625C16.5312 1.15625 15.9375 0.5625 15.2188 0.375C13.875 0 8.5625 0 8.5625 0C8.5625 0 3.21875 0 1.875 0.375C1.15625 0.5625 0.5625 1.15625 0.375 1.90625C0 3.21875 0 6.03125 0 6.03125C0 6.03125 0 8.8125 0.375 10.1562C0.5625 10.9062 1.15625 11.4688 1.875 11.6562C3.21875 12 8.5625 12 8.5625 12C8.5625 12 13.875 12 15.2188 11.6562C15.9375 11.4688 16.5312 10.9062 16.7188 10.1562C17.0938 8.8125 17.0938 6.03125 17.0938 6.03125C17.0938 6.03125 17.0938 3.21875 16.7188 1.90625ZM6.8125 8.5625V3.5L11.25 6.03125L6.8125 8.5625Z" fill="#2AA7FF"/>
</svg>
